<svg xmlns="http://www.w3.org/2000/svg" width="512" height="512" viewBox="0 0 512 512">
<g>
<path d="M 52.07 384.75 L 52.00 512.00 L 0.00 512.00 L 0.00 0.00 L 512.00 0.00 L 501.25 0.11 C494.21,0.19 491.71,0.47 494.00,0.93 C495.92,1.31 498.43,2.13 499.56,2.75 C502.84,4.53 509.87,12.63 510.57,15.44 C510.93,16.85 511.39,18.00 511.61,18.00 C511.82,18.00 512.00,13.95 512.00,9.00 L 512.00 512.00 L 460.00 512.00 L 460.00 381.15 C460.00,309.19 459.71,246.26 459.36,241.31 C458.58,230.28 457.75,229.42 449.82,231.41 C446.89,232.15 442.53,233.05 440.12,233.41 C437.71,233.77 433.43,235.13 430.62,236.43 C427.80,237.73 422.94,239.10 419.80,239.46 C416.67,239.83 413.07,240.94 411.80,241.93 C410.54,242.92 405.96,244.44 401.64,245.32 C392.80,247.11 390.13,248.51 388.03,252.45 C386.73,254.87 386.77,255.67 388.36,259.83 C392.77,271.41 392.76,271.07 392.91,421.25 L 393.00 512.00 L 123.95 512.00 L 124.22 388.75 L 124.50 265.50 L 126.75 261.29 C127.99,258.97 129.00,256.21 129.00,255.15 C129.00,250.49 120.41,245.04 113.00,245.00 C111.62,244.99 108.25,243.94 105.50,242.66 C102.75,241.39 97.64,239.78 94.14,239.10 C90.65,238.42 86.13,236.99 84.11,235.94 C82.08,234.88 78.19,233.73 75.46,233.37 C72.73,233.01 69.28,232.11 67.80,231.36 C63.64,229.27 59.47,229.64 57.76,232.25 C56.39,234.34 54.96,240.39 52.97,252.50 C52.52,255.25 52.11,314.76 52.07,384.75 ZM 237.97 157.27 C239.26,158.17 245.46,158.44 261.07,158.26 C279.94,158.05 282.62,157.82 284.15,156.26 C285.52,154.86 286.07,151.42 286.86,139.50 C287.57,128.84 288.47,122.76 289.97,118.50 C291.55,114.03 292.23,109.06 292.66,99.00 C293.06,89.64 293.69,84.77 294.72,83.13 C295.54,81.83 296.84,77.12 297.61,72.68 C299.22,63.47 298.37,58.95 294.72,57.31 C286.22,53.49 282.30,53.00 260.87,53.06 C231.47,53.15 224.88,54.80 223.46,62.39 C222.51,67.44 224.66,84.07 226.92,89.12 C228.57,92.82 229.11,96.73 229.63,108.62 C230.14,120.44 230.74,124.74 232.51,129.54 C233.95,133.41 235.02,139.27 235.49,145.81 C236.06,153.87 236.59,156.30 237.97,157.27 ZM 339.00 182.33 C340.38,182.55 341.84,182.79 342.25,182.86 C343.47,183.09 347.00,179.12 347.00,177.54 C347.00,176.73 347.94,175.57 349.08,174.95 C350.23,174.34 351.84,172.22 352.67,170.25 C353.50,168.27 355.26,165.80 356.59,164.75 C357.91,163.71 359.00,162.17 359.00,161.33 C359.00,160.49 360.24,158.50 361.75,156.92 C367.08,151.33 368.99,148.93 370.63,145.73 C371.54,143.95 373.34,141.23 374.64,139.67 C375.94,138.12 377.00,136.34 377.00,135.71 C377.00,135.09 378.20,133.61 379.68,132.44 C381.90,130.67 382.37,129.47 382.43,125.40 C382.50,120.81 382.30,120.41 379.26,119.07 C377.48,118.29 375.77,116.84 375.45,115.85 C375.12,114.80 373.12,113.54 370.69,112.85 C368.39,112.20 365.83,110.86 365.00,109.87 C364.17,108.88 361.70,107.34 359.50,106.43 C357.30,105.53 354.74,103.98 353.81,103.00 C352.87,102.00 349.85,100.89 347.05,100.51 C343.68,100.04 341.51,99.14 340.59,97.82 C338.70,95.13 331.69,93.62 327.49,95.00 C322.72,96.58 321.08,98.97 319.86,106.11 C319.23,109.77 317.93,113.42 316.80,114.65 C315.64,115.92 314.37,119.59 313.67,123.68 C312.99,127.69 311.62,131.68 310.38,133.25 C309.03,134.97 308.01,138.17 307.56,142.16 C307.06,146.57 306.15,149.22 304.43,151.27 C302.70,153.33 302.00,155.36 302.00,158.38 C302.00,164.10 306.71,168.83 313.66,170.12 C316.32,170.61 318.95,171.62 319.50,172.36 C320.06,173.10 322.50,174.73 324.94,175.97 C327.38,177.21 330.00,178.85 330.76,179.61 C332.10,180.96 333.79,181.51 339.00,182.33 ZM 378.71 229.98 C383.13,234.32 385.01,234.75 387.50,232.00 C388.50,230.90 390.25,230.00 391.40,230.00 C392.56,229.99 394.85,229.10 396.50,228.01 C402.03,224.35 402.49,224.12 405.21,223.55 C406.70,223.24 409.12,221.86 410.60,220.49 C412.08,219.12 414.09,218.00 415.07,218.00 C416.05,218.00 418.22,216.84 419.91,215.42 C421.59,214.01 424.66,212.38 426.73,211.81 C428.79,211.24 431.76,209.70 433.32,208.39 C434.88,207.07 437.08,206.00 438.21,206.00 C440.91,206.00 447.00,199.48 447.00,196.58 C447.00,195.33 446.10,193.50 445.00,192.50 C443.90,191.50 442.99,189.75 442.98,188.60 C442.98,187.44 441.63,184.98 439.98,183.11 C438.34,181.25 437.00,179.11 437.00,178.36 C437.00,177.60 435.65,175.57 434.00,173.84 C432.35,172.12 431.00,170.11 431.00,169.37 C431.00,168.64 429.89,167.32 428.54,166.43 C427.19,165.55 425.79,163.85 425.43,162.66 C425.07,161.47 423.56,159.15 422.07,157.50 C420.58,155.85 418.63,153.32 417.75,151.89 C415.58,148.38 408.75,146.55 405.08,148.50 C403.66,149.25 392.26,160.01 379.75,172.40 C378.89,173.26 378.06,174.08 377.25,174.88 C361.58,190.39 356.42,195.50 357.04,199.77 C357.37,202.09 359.41,204.15 362.39,207.50 C365.32,210.80 368.89,214.75 370.32,216.27 C371.75,217.80 373.37,220.67 373.92,222.65 C374.46,224.64 376.62,227.94 378.71,229.98 ZM 176.49 180.35 C178.40,182.43 179.71,183.04 181.31,182.62 C182.51,182.29 184.23,182.02 185.11,182.01 C186.00,182.01 188.39,180.68 190.41,179.07 C192.44,177.46 195.37,175.86 196.93,175.52 C198.48,175.18 200.78,173.79 202.05,172.45 C203.54,170.86 205.45,170.00 207.48,170.00 C211.16,170.00 212.81,168.88 216.95,163.61 C220.57,159.00 220.62,158.62 217.93,155.93 C216.63,154.63 215.50,151.58 214.88,147.68 C214.33,144.28 212.79,139.62 211.44,137.32 C210.06,134.95 208.98,131.49 208.95,129.32 C208.93,127.22 208.05,123.93 207.00,122.00 C203.75,116.01 203.27,114.67 202.14,108.58 C201.52,105.30 200.14,101.71 199.02,100.52 C197.91,99.34 197.00,97.83 197.00,97.16 C197.00,96.50 195.88,95.44 194.50,94.82 C191.28,93.35 181.95,95.30 179.55,97.94 C178.63,98.96 175.91,100.09 173.51,100.45 C170.95,100.83 167.62,102.32 165.44,104.05 C163.40,105.67 161.15,107.00 160.44,107.00 C159.73,107.00 157.88,108.06 156.33,109.35 C154.77,110.64 152.27,112.00 150.76,112.36 C149.26,112.73 147.29,114.15 146.40,115.52 C145.50,116.88 144.18,118.00 143.46,118.00 C140.86,118.00 139.00,121.12 139.00,125.48 C139.00,128.97 139.68,130.63 142.50,134.00 C144.43,136.30 146.00,138.51 146.00,138.91 C146.00,139.30 146.85,140.54 147.89,141.66 C148.94,142.77 150.52,145.10 151.41,146.82 C152.30,148.55 153.94,150.98 155.04,152.23 C161.81,159.87 163.00,161.43 163.00,162.65 C163.00,163.39 164.57,165.74 166.50,167.87 C168.43,170.00 170.00,172.12 170.00,172.59 C170.00,173.05 170.87,174.35 171.93,175.46 C172.99,176.58 175.04,178.78 176.49,180.35 ZM 136.00 232.50 C137.74,234.59 138.64,234.39 140.70,231.42 C141.69,230.00 143.74,227.35 145.25,225.54 C146.76,223.72 148.00,221.78 148.00,221.21 C148.00,220.65 149.58,218.30 151.51,215.99 C153.44,213.68 155.27,210.76 155.59,209.49 C155.91,208.23 157.00,206.97 158.01,206.71 C159.92,206.21 164.00,199.25 164.00,196.48 C164.00,194.40 157.12,186.17 154.76,185.42 C153.75,185.10 146.02,177.90 137.56,169.42 C129.11,160.94 121.70,154.00 121.10,154.00 C120.49,154.00 120.00,153.55 120.00,153.00 C120.00,150.49 115.88,148.00 111.75,148.01 C107.89,148.02 107.06,148.51 102.80,153.26 C95.10,161.84 92.37,165.32 90.59,168.80 C89.66,170.62 88.28,172.34 87.54,172.62 C86.79,172.91 85.89,174.31 85.53,175.72 C85.18,177.14 83.82,179.14 82.52,180.16 C81.22,181.19 79.85,183.48 79.47,185.26 C79.10,187.04 77.65,189.71 76.26,191.20 C74.15,193.44 73.82,194.53 74.33,197.64 C75.01,201.84 79.12,205.91 82.75,205.96 C83.99,205.98 85.96,206.96 87.14,208.14 C88.32,209.32 91.28,210.88 93.72,211.62 C96.16,212.35 99.50,214.09 101.15,215.48 C102.80,216.86 105.21,218.00 106.50,218.00 C107.81,218.00 109.72,219.09 110.79,220.46 C111.90,221.87 114.46,223.32 116.73,223.83 C118.93,224.32 121.66,225.66 122.80,226.80 C124.65,228.65 130.66,230.98 133.63,230.99 C134.25,231.00 135.32,231.68 136.00,232.50 ZM 191.93 407.02 C197.15,409.78 203.88,409.57 208.40,406.50 C208.57,406.39 208.72,406.28 208.87,406.18 C211.18,404.61 212.09,404.00 212.56,404.24 C212.90,404.41 213.03,405.01 213.29,406.00 C213.74,407.74 214.65,408.00 220.28,408.00 C226.73,408.00 226.75,407.99 227.38,404.88 C227.72,403.16 228.00,388.41 228.00,372.10 L 228.00 342.44 L 222.20 340.72 C219.01,339.77 215.69,339.00 214.83,339.00 C212.81,339.00 212.00,343.03 212.00,353.07 C212.00,357.36 211.55,361.16 211.00,361.50 C210.45,361.84 210.00,361.70 210.00,361.18 C210.00,359.27 203.94,357.76 198.00,358.19 C193.07,358.55 191.44,359.15 188.87,361.56 C184.58,365.59 182.28,371.19 181.46,379.60 C180.23,392.31 184.31,402.99 191.93,407.02 ZM 288.59 407.14 C288.88,407.61 292.47,408.00 296.56,408.00 L 304.00 408.00 L 304.00 398.50 C304.00,391.08 304.30,389.00 305.38,389.00 C306.14,389.00 309.50,393.27 312.85,398.50 L 318.92 408.00 L 327.46 408.00 C332.16,408.00 336.00,407.62 336.00,407.16 C336.00,406.69 332.40,400.83 328.00,394.12 C323.60,387.42 320.00,381.36 320.00,380.66 C320.00,379.96 323.15,374.78 327.00,369.14 C330.85,363.50 334.00,358.69 334.00,358.45 C334.00,358.20 330.03,358.00 325.17,358.00 L 316.35 358.00 L 311.41 366.67 C308.69,371.44 305.91,375.53 305.23,375.76 C304.29,376.07 304.00,372.63 303.99,361.33 C303.98,353.17 303.70,344.81 303.36,342.75 C302.63,338.37 301.48,338.16 293.20,340.87 L 287.89 342.60 L 287.97 374.44 C288.02,391.95 288.29,406.66 288.59,407.14 ZM 347.74 408.57 C349.81,409.31 352.08,409.93 352.78,409.96 C354.76,410.02 361.20,407.12 363.33,405.21 C365.14,403.59 365.31,403.61 366.74,405.75 C368.08,407.75 369.08,408.00 375.74,408.00 C383.06,408.00 383.22,407.95 382.51,405.75 C382.11,404.51 381.48,395.82 381.10,386.44 C380.52,372.14 380.09,368.84 378.45,366.04 C374.85,359.89 371.94,358.54 361.44,358.15 C353.31,357.85 351.40,358.11 347.42,360.04 C342.37,362.48 339.01,366.96 339.00,371.25 C339.00,373.98 339.04,374.00 345.88,374.00 C352.13,374.00 352.92,373.77 354.41,371.50 C357.76,366.39 365.40,369.24 364.80,375.38 L 364.50 378.50 L 356.00 379.01 C349.56,379.40 346.62,380.07 343.86,381.78 C337.32,385.82 335.28,393.71 338.93,400.86 C341.26,405.44 342.85,406.82 347.74,408.57 ZM 151.50 409.11 C153.15,409.54 156.68,409.67 159.33,409.40 C164.33,408.89 174.58,405.50 175.47,404.05 C175.75,403.60 175.37,401.49 174.63,399.37 C173.14,395.13 172.79,395.04 162.81,396.54 C160.23,396.93 156.95,396.95 155.53,396.60 C152.92,395.94 148.67,390.35 149.61,388.82 C149.89,388.37 156.17,388.00 163.56,388.00 L 177.00 388.00 L 177.00 380.68 C177.00,374.66 176.51,372.40 174.25,367.98 C170.28,360.21 167.56,358.59 157.78,358.14 C153.33,357.94 147.99,358.29 145.91,358.91 C141.34,360.28 135.80,366.39 134.16,371.86 C132.27,378.18 132.68,391.45 134.90,395.79 C138.41,402.66 144.04,407.18 151.50,409.11 ZM 243.19 406.98 C248.12,409.98 256.61,409.76 261.40,406.50 C261.57,406.39 261.72,406.28 261.87,406.18 C264.18,404.61 265.09,404.00 265.56,404.24 C265.90,404.41 266.03,405.01 266.29,406.00 C266.75,407.74 267.65,408.00 273.41,408.00 L 280.00 408.00 L 280.00 358.00 L 264.00 358.00 L 264.00 376.46 C264.00,393.70 263.87,395.00 262.07,395.96 C258.70,397.77 255.27,397.16 253.07,394.37 C251.16,391.94 251.00,390.41 251.00,374.87 L 251.00 358.00 L 236.00 358.00 L 236.02 377.25 C236.05,399.10 237.04,403.23 243.19,406.98 ZM 182.76 355.06 C187.05,356.44 194.81,355.30 199.35,352.63 C217.24,342.12 211.10,315.81 190.18,313.33 C186.18,312.86 184.17,313.23 179.69,315.28 C174.34,317.73 174.09,317.76 172.49,315.99 C171.18,314.54 171.07,313.74 171.97,312.06 C173.44,309.31 172.35,307.46 170.27,309.19 C168.92,310.31 168.80,310.19 169.40,308.33 C170.28,305.54 168.27,304.25 166.60,306.53 C165.40,308.17 165.20,308.17 162.67,306.52 C160.52,305.11 160.00,305.05 160.00,306.18 C160.00,306.96 160.56,308.17 161.25,308.86 C162.25,309.87 162.15,310.32 160.75,311.11 C158.01,312.66 158.69,314.00 162.25,314.04 C165.41,314.07 165.44,314.11 163.22,315.34 C160.18,317.03 161.40,318.00 166.56,318.00 C171.87,318.00 172.68,319.73 169.72,324.75 C168.09,327.50 167.50,330.10 167.51,334.50 C167.51,344.21 173.31,352.02 182.76,355.06 ZM 335.45 349.53 C336.25,351.44 337.28,353.00 337.76,353.00 C338.48,353.00 343.38,346.83 346.32,342.22 C346.79,341.48 346.43,338.80 345.49,335.98 C343.91,331.22 343.93,330.91 345.84,328.22 C351.14,320.78 355.43,297.00 351.47,297.00 C347.36,297.00 333.07,305.06 327.55,310.49 C322.31,315.65 321.65,316.00 317.07,316.00 C312.33,316.00 312.08,316.15 308.45,321.20 C303.28,328.40 303.40,329.39 309.50,330.00 C313.02,330.36 315.69,331.42 318.50,333.57 C328.53,341.25 332.39,344.00 333.16,344.00 C333.62,344.00 334.00,344.46 334.00,345.03 C334.00,345.60 334.65,347.62 335.45,349.53 ZM 197.75 350.18 C195.17,352.02 193.16,352.51 188.00,352.54 C181.74,352.58 181.35,352.43 177.33,348.54 C172.69,344.03 170.00,339.32 170.00,335.67 C170.00,328.54 173.24,322.39 176.37,323.59 C178.13,324.26 178.12,325.76 176.33,330.66 C175.71,332.38 175.81,332.37 177.89,330.54 C180.63,328.14 183.68,329.52 183.18,332.93 C182.66,336.44 185.59,340.00 189.00,340.00 C192.44,340.00 195.64,336.10 194.54,333.26 C193.97,331.81 193.61,332.07 192.47,334.75 C191.04,338.14 188.40,339.00 186.20,336.80 C184.34,334.94 184.78,333.71 187.08,334.31 C188.66,334.72 189.02,334.48 188.56,333.30 C188.23,332.45 188.48,331.13 189.11,330.37 C190.02,329.27 189.75,329.00 187.74,329.00 C184.98,329.00 182.47,326.67 183.47,325.04 C183.83,324.47 185.10,323.99 186.31,323.98 C187.51,323.98 189.18,323.53 190.00,323.00 C191.10,322.29 190.43,322.03 187.45,322.02 C185.22,322.01 182.94,322.46 182.37,323.03 C181.11,324.29 178.35,323.36 177.61,321.43 C176.87,319.50 183.89,316.00 188.50,316.00 C192.60,316.00 199.79,319.33 202.00,322.25 C202.82,323.34 204.22,325.02 205.10,325.97 C206.25,327.21 206.67,329.52 206.60,334.18 C206.52,339.62 206.06,341.24 203.75,344.26 C202.24,346.24 199.54,348.90 197.75,350.18 ZM 341.00 330.50 C339.30,332.97 337.36,334.98 336.70,334.95 C336.04,334.92 332.23,332.43 328.24,329.42 L 320.97 323.96 L 322.63 320.75 C324.56,317.02 334.52,307.00 336.30,307.00 C336.97,307.00 338.09,307.91 338.78,309.02 C339.47,310.12 341.83,311.75 344.02,312.62 C346.42,313.59 347.99,314.87 347.98,315.86 C347.95,318.24 344.58,325.29 341.00,330.50 ZM 209.69 394.83 C205.02,399.21 198.72,396.37 197.39,389.28 C196.43,384.15 197.45,375.50 199.35,372.59 C200.69,370.55 201.86,370.00 204.87,370.00 C210.93,370.00 212.00,371.97 212.00,383.15 C212.00,391.79 211.79,392.85 209.69,394.83 ZM 253.62 320.46 C254.02,321.48 255.52,322.00 258.13,322.00 C262.87,322.00 263.40,321.01 265.02,309.11 C266.34,299.32 266.15,299.03 258.50,299.03 C250.78,299.03 250.64,299.26 251.93,309.82 C252.53,314.82 253.30,319.61 253.62,320.46 ZM 224.00 334.79 C227.02,336.44 229.78,337.85 230.13,337.90 C231.05,338.05 236.21,331.07 235.82,330.20 C235.65,329.79 233.14,327.28 230.27,324.61 L 225.03 319.76 L 222.01 322.99 C219.29,325.90 217.16,330.54 218.13,331.43 C218.33,331.62 220.98,333.13 224.00,334.79 ZM 283.10 334.44 C284.25,336.40 285.61,338.00 286.11,338.00 C287.82,338.00 298.17,331.72 298.69,330.38 C299.36,328.61 293.29,321.00 291.20,321.00 C289.60,321.00 281.00,328.72 281.00,330.15 C281.00,330.56 281.94,332.49 283.10,334.44 ZM 271.67 324.89 C276.53,327.46 276.69,327.45 278.11,324.75 C278.76,323.51 280.61,320.82 282.21,318.77 C283.82,316.71 284.83,314.53 284.45,313.91 C283.60,312.54 276.10,309.05 273.93,309.02 C272.89,309.01 271.75,310.94 270.55,314.75 C269.56,317.91 268.54,321.03 268.29,321.68 C268.04,322.34 269.56,323.78 271.67,324.89 ZM 236.07 320.98 C240.40,327.15 241.42,327.47 245.96,324.03 L 248.42 322.17 L 246.73 316.80 C243.95,307.99 243.44,307.65 237.25,310.63 C234.36,312.02 232.00,313.61 232.00,314.17 C232.00,314.73 233.83,317.79 236.07,320.98 ZM 0.10 501.25 L 0.00 512.00 L 9.75 511.98 L 19.50 511.96 L 15.00 509.92 C7.58,506.56 2.74,500.91 0.94,493.50 C0.47,491.60 0.17,494.46 0.10,501.25 ZM 0.10 10.75 C0.17,17.54 0.47,20.40 0.94,18.50 C3.05,9.83 9.85,3.02 18.50,0.93 C20.38,0.48 17.49,0.17 10.75,0.10 L 0.00 0.00 ZM 497.00 510.41 C493.54,511.90 493.60,511.92 502.75,511.96 L 512.00 512.00 L 511.98 502.75 L 511.96 493.50 L 510.10 497.50 C507.84,502.36 501.75,508.36 497.00,510.41 ZM 363.65 395.87 C360.98,398.09 356.56,398.28 354.73,396.25 C352.59,393.89 352.55,392.09 354.56,389.22 C355.77,387.49 357.10,387.00 360.56,387.00 L 365.00 387.00 L 365.00 390.88 C365.00,393.01 364.39,395.26 363.65,395.87 ZM 161.64 376.49 C161.21,377.61 159.48,378.00 155.03,378.00 C149.92,378.00 149.00,377.73 149.00,376.22 C149.00,370.25 157.36,367.56 160.59,372.49 C161.49,373.86 161.96,375.66 161.64,376.49 ZM 333.97 338.25 C333.99,339.21 333.44,339.97 332.75,339.94 C330.45,339.82 318.05,330.52 318.28,329.08 C318.59,327.10 320.51,326.67 322.13,328.21 C322.89,328.92 325.85,331.08 328.72,333.00 C331.65,334.96 333.96,337.27 333.97,338.25 ZM 318.03 322.93 C315.71,327.49 315.42,327.69 311.75,327.22 C308.47,326.80 308.42,326.46 310.99,322.25 C312.62,319.57 313.59,319.00 316.51,319.00 L 320.04 319.00 ZM 341.41 344.53 C339.95,346.44 338.61,348.00 338.42,348.00 C337.67,348.00 336.00,344.03 336.00,342.24 C336.00,340.24 339.88,336.00 341.71,336.00 C342.30,336.00 343.07,337.14 343.42,338.53 C343.88,340.39 343.35,341.99 341.41,344.53 ZM 349.00 305.44 C349.00,310.13 348.44,311.04 346.00,310.24 C344.26,309.67 340.00,305.95 340.00,305.01 C340.00,304.28 346.57,301.00 348.03,301.00 C348.57,301.00 349.00,303.00 349.00,305.44 ZM 313.00 350.58 C313.00,353.11 314.50,352.10 318.29,347.03 C322.09,341.93 322.97,339.51 320.75,340.25 C319.02,340.82 313.00,348.84 313.00,350.58 ZM 312.00 343.13 C312.00,344.75 314.17,344.01 316.06,341.75 C318.08,339.33 318.57,337.00 317.07,337.00 C316.00,337.00 312.00,341.84 312.00,343.13 ZM 320.77 349.43 C321.53,350.20 326.00,345.51 326.00,343.94 C326.00,343.42 325.42,343.00 324.72,343.00 C323.13,343.00 319.78,348.45 320.77,349.43 Z" fill="rgb(12,27,50)"/>
<path d="M 237.97 157.27 C236.59,156.30 236.06,153.87 235.49,145.81 C235.02,139.27 233.95,133.41 232.51,129.54 C230.74,124.74 230.14,120.44 229.63,108.62 C229.11,96.73 228.57,92.82 226.92,89.12 C224.66,84.07 222.51,67.44 223.46,62.39 C224.88,54.80 231.47,53.15 260.87,53.06 C282.30,53.00 286.22,53.49 294.72,57.31 C298.37,58.95 299.22,63.47 297.61,72.68 C296.84,77.12 295.54,81.83 294.72,83.13 C293.69,84.77 293.06,89.64 292.66,99.00 C292.23,109.06 291.55,114.03 289.97,118.50 C288.47,122.76 287.57,128.84 286.86,139.50 C286.07,151.42 285.52,154.86 284.15,156.26 C282.62,157.82 279.94,158.05 261.07,158.26 C245.46,158.44 239.26,158.17 237.97,157.27 ZM 240.80 155.32 C241.73,155.57 250.63,155.82 260.56,155.88 C273.64,155.97 279.06,155.66 280.21,154.75 C282.30,153.11 283.61,146.44 284.98,130.50 C285.59,123.35 286.94,114.35 287.99,110.50 C289.04,106.65 290.37,97.65 290.96,90.50 C291.55,83.35 292.74,74.46 293.62,70.75 C294.50,67.04 294.97,63.35 294.66,62.56 C294.36,61.77 291.00,60.19 287.20,59.06 C281.27,57.29 277.56,57.00 261.20,57.00 C242.35,57.00 230.56,58.46 227.26,61.20 C225.51,62.65 225.68,66.55 227.91,75.88 C228.96,80.28 230.36,89.87 231.01,97.19 C231.66,104.51 232.79,112.75 233.53,115.50 C234.96,120.83 236.49,131.77 237.51,144.00 C238.31,153.44 238.69,154.77 240.80,155.32 ZM 339.00 182.33 C333.79,181.51 332.10,180.96 330.76,179.61 C330.00,178.85 327.38,177.21 324.94,175.97 C322.50,174.73 320.06,173.10 319.50,172.36 C318.95,171.62 316.32,170.61 313.66,170.12 C306.71,168.83 302.00,164.10 302.00,158.38 C302.00,155.36 302.70,153.33 304.43,151.27 C306.15,149.22 307.06,146.57 307.56,142.16 C308.01,138.17 309.03,134.97 310.38,133.25 C311.62,131.68 312.99,127.69 313.67,123.68 C314.37,119.59 315.64,115.92 316.80,114.65 C317.93,113.42 319.23,109.77 319.86,106.11 C321.08,98.97 322.72,96.58 327.49,95.00 C331.69,93.62 338.70,95.13 340.59,97.82 C341.51,99.14 343.68,100.04 347.05,100.51 C349.85,100.89 352.87,102.00 353.81,103.00 C354.74,103.98 357.30,105.53 359.50,106.43 C361.70,107.34 364.17,108.88 365.00,109.87 C365.83,110.86 368.39,112.20 370.69,112.85 C373.12,113.54 375.12,114.80 375.45,115.85 C375.77,116.84 377.48,118.29 379.26,119.07 C382.30,120.41 382.50,120.81 382.43,125.40 C382.37,129.47 381.90,130.67 379.68,132.44 C378.20,133.61 377.00,135.09 377.00,135.71 C377.00,136.34 375.94,138.12 374.64,139.67 C373.34,141.23 371.54,143.95 370.63,145.73 C368.99,148.93 367.08,151.33 361.75,156.92 C360.24,158.50 359.00,160.49 359.00,161.33 C359.00,162.17 357.91,163.71 356.59,164.75 C355.26,165.80 353.50,168.27 352.67,170.25 C351.84,172.22 350.23,174.34 349.08,174.95 C347.94,175.57 347.00,176.73 347.00,177.54 C347.00,179.12 343.47,183.09 342.25,182.86 C341.84,182.79 340.38,182.55 339.00,182.33 ZM 378.71 229.98 C376.62,227.94 374.46,224.64 373.92,222.65 C373.37,220.67 371.75,217.80 370.32,216.27 C368.89,214.75 365.32,210.80 362.39,207.50 C359.41,204.15 357.37,202.09 357.04,199.77 C356.42,195.50 361.58,190.39 377.25,174.88 C378.06,174.08 378.89,173.26 379.75,172.40 C392.26,160.01 403.66,149.25 405.08,148.50 C408.75,146.55 415.58,148.38 417.75,151.89 C418.63,153.32 420.58,155.85 422.07,157.50 C423.56,159.15 425.07,161.47 425.43,162.66 C425.79,163.85 427.19,165.55 428.54,166.43 C429.89,167.32 431.00,168.64 431.00,169.37 C431.00,170.11 432.35,172.12 434.00,173.84 C435.65,175.57 437.00,177.60 437.00,178.36 C437.00,179.11 438.34,181.25 439.98,183.11 C441.63,184.98 442.98,187.44 442.98,188.60 C442.99,189.75 443.90,191.50 445.00,192.50 C446.10,193.50 447.00,195.33 447.00,196.58 C447.00,199.48 440.91,206.00 438.21,206.00 C437.08,206.00 434.88,207.07 433.32,208.39 C431.76,209.70 428.79,211.24 426.73,211.81 C424.66,212.38 421.59,214.01 419.91,215.42 C418.22,216.84 416.05,218.00 415.07,218.00 C414.09,218.00 412.08,219.12 410.60,220.49 C409.12,221.86 406.70,223.24 405.21,223.55 C402.49,224.12 402.03,224.35 396.50,228.01 C394.85,229.10 392.56,229.99 391.40,230.00 C390.25,230.00 388.50,230.90 387.50,232.00 C385.01,234.75 383.13,234.32 378.71,229.98 ZM 176.49 180.35 C175.04,178.78 172.99,176.58 171.93,175.46 C170.87,174.35 170.00,173.05 170.00,172.59 C170.00,172.12 168.43,170.00 166.50,167.87 C164.57,165.74 163.00,163.39 163.00,162.65 C163.00,161.43 161.81,159.87 155.04,152.23 C153.94,150.98 152.30,148.55 151.41,146.82 C150.52,145.10 148.94,142.77 147.89,141.66 C146.85,140.54 146.00,139.30 146.00,138.91 C146.00,138.51 144.43,136.30 142.50,134.00 C139.68,130.63 139.00,128.97 139.00,125.48 C139.00,121.12 140.86,118.00 143.46,118.00 C144.18,118.00 145.50,116.88 146.40,115.52 C147.29,114.15 149.26,112.73 150.76,112.36 C152.27,112.00 154.77,110.64 156.33,109.35 C157.88,108.06 159.73,107.00 160.44,107.00 C161.15,107.00 163.40,105.67 165.44,104.05 C167.62,102.32 170.95,100.83 173.51,100.45 C175.91,100.09 178.63,98.96 179.55,97.94 C181.95,95.30 191.28,93.35 194.50,94.82 C195.88,95.44 197.00,96.50 197.00,97.16 C197.00,97.83 197.91,99.34 199.02,100.52 C200.14,101.71 201.52,105.30 202.14,108.58 C203.27,114.67 203.75,116.01 207.00,122.00 C208.05,123.93 208.93,127.22 208.95,129.32 C208.98,131.49 210.06,134.95 211.44,137.32 C212.79,139.62 214.33,144.28 214.88,147.68 C215.50,151.58 216.63,154.63 217.93,155.93 C220.62,158.62 220.57,159.00 216.95,163.61 C212.81,168.88 211.16,170.00 207.48,170.00 C205.45,170.00 203.54,170.86 202.05,172.45 C200.78,173.79 198.48,175.18 196.93,175.52 C195.37,175.86 192.44,177.46 190.41,179.07 C188.39,180.68 186.00,182.01 185.11,182.01 C184.23,182.02 182.51,182.29 181.31,182.62 C179.71,183.04 178.40,182.43 176.49,180.35 ZM 136.00 232.50 C135.32,231.68 134.25,231.00 133.63,230.99 C130.66,230.98 124.65,228.65 122.80,226.80 C121.66,225.66 118.93,224.32 116.73,223.83 C114.46,223.32 111.90,221.87 110.79,220.46 C109.72,219.09 107.81,218.00 106.50,218.00 C105.21,218.00 102.80,216.86 101.15,215.48 C99.50,214.09 96.16,212.35 93.72,211.62 C91.28,210.88 88.32,209.32 87.14,208.14 C85.96,206.96 83.99,205.98 82.75,205.96 C79.12,205.91 75.01,201.84 74.33,197.64 C73.82,194.53 74.15,193.44 76.26,191.20 C77.65,189.71 79.10,187.04 79.47,185.26 C79.85,183.48 81.22,181.19 82.52,180.16 C83.82,179.14 85.18,177.14 85.53,175.72 C85.89,174.31 86.79,172.91 87.54,172.62 C88.28,172.34 89.66,170.62 90.59,168.80 C92.37,165.32 95.10,161.84 102.80,153.26 C107.06,148.51 107.89,148.02 111.75,148.01 C115.88,148.00 120.00,150.49 120.00,153.00 C120.00,153.55 120.49,154.00 121.10,154.00 C121.70,154.00 129.11,160.94 137.56,169.42 C146.02,177.90 153.75,185.10 154.76,185.42 C157.12,186.17 164.00,194.40 164.00,196.48 C164.00,199.25 159.92,206.21 158.01,206.71 C157.00,206.97 155.91,208.23 155.59,209.49 C155.27,210.76 153.44,213.68 151.51,215.99 C149.58,218.30 148.00,220.65 148.00,221.21 C148.00,221.78 146.76,223.72 145.25,225.54 C143.74,227.35 141.69,230.00 140.70,231.42 C138.64,234.39 137.74,234.59 136.00,232.50 ZM 332.50 177.00 C336.57,180.23 341.02,180.90 343.18,178.59 C343.91,177.81 346.08,174.86 348.00,172.03 C349.92,169.20 352.74,165.39 354.25,163.56 C355.76,161.73 357.00,159.91 357.00,159.51 C357.00,159.10 358.15,157.36 359.55,155.64 C362.95,151.47 371.59,139.28 377.01,131.00 C381.35,124.39 381.00,123.07 373.75,118.42 C370.31,116.22 366.26,113.80 364.75,113.04 C363.24,112.28 362.00,111.32 362.00,110.91 C362.00,110.49 360.31,109.60 358.25,108.93 C356.19,108.25 353.11,106.64 351.42,105.36 C349.72,104.07 346.80,102.72 344.92,102.36 C343.04,101.99 339.09,100.42 336.15,98.87 C332.14,96.75 330.34,96.28 328.99,97.01 C326.32,98.43 323.40,103.70 321.50,110.50 C320.57,113.80 318.97,118.31 317.93,120.52 C316.89,122.74 315.77,126.11 315.44,128.02 C315.11,129.94 313.76,134.00 312.45,137.06 C311.14,140.11 309.54,145.06 308.90,148.06 C308.26,151.05 307.12,154.39 306.37,155.47 C304.34,158.40 304.69,160.33 307.75,163.19 C311.06,166.27 314.23,167.99 316.68,168.03 C317.68,168.04 320.27,169.39 322.43,171.03 C324.59,172.66 326.89,174.00 327.54,174.00 C328.19,174.00 330.42,175.35 332.50,177.00 ZM 175.99 175.84 C179.16,179.78 179.80,180.13 182.88,179.63 C184.76,179.33 187.23,178.23 188.39,177.20 C191.55,174.38 203.05,168.33 206.76,167.53 C208.77,167.10 211.01,165.54 212.60,163.46 L 215.18 160.08 L 213.58 153.05 C212.70,149.19 211.07,144.27 209.95,142.13 C208.83,139.98 207.54,136.04 207.09,133.36 C206.64,130.69 205.09,126.03 203.64,123.00 C202.20,119.97 201.02,116.40 201.01,115.07 C201.00,113.73 200.18,110.80 199.17,108.57 C198.16,106.33 196.59,102.80 195.67,100.72 C194.75,98.64 193.38,96.70 192.63,96.41 C191.87,96.12 188.34,97.26 184.78,98.94 C181.22,100.62 177.45,102.01 176.40,102.03 C175.36,102.04 172.05,103.61 169.05,105.53 C166.05,107.44 163.16,109.00 162.64,109.00 C162.12,109.00 160.30,110.06 158.59,111.36 C156.89,112.65 154.38,114.05 153.00,114.47 C151.62,114.88 149.38,116.24 148.00,117.49 C146.62,118.74 144.44,120.30 143.15,120.96 C141.12,122.01 140.90,122.65 141.48,125.84 C141.85,127.85 143.16,130.62 144.39,132.00 C145.62,133.38 147.39,135.62 148.32,137.00 C152.76,143.58 157.18,149.87 159.92,153.50 C161.57,155.70 165.08,160.65 167.71,164.50 C170.35,168.35 174.07,173.46 175.99,175.84 ZM 123.50 223.92 C136.73,230.68 138.14,230.55 143.69,222.00 C149.47,213.10 152.92,208.44 156.75,204.38 C161.68,199.16 161.28,195.39 155.25,190.03 C152.64,187.71 142.31,177.71 132.30,167.82 C115.44,151.15 113.88,149.87 111.23,150.45 C107.41,151.29 94.49,166.51 87.01,179.00 C86.60,179.68 86.21,180.34 85.84,180.96 C78.94,192.47 77.54,194.80 77.97,196.72 C78.10,197.32 78.40,197.87 78.77,198.65 C80.26,201.77 81.11,202.39 88.00,205.47 C89.93,206.33 92.62,207.66 94.00,208.42 C95.38,209.17 98.07,210.54 100.00,211.46 C101.93,212.37 105.75,214.40 108.50,215.97 C111.25,217.53 118.00,221.11 123.50,223.92 ZM 379.87 225.99 C384.43,230.68 384.48,230.67 398.77,223.26 C403.57,220.77 409.17,217.89 411.22,216.86 C413.26,215.83 416.58,213.86 418.60,212.49 C420.63,211.12 423.03,210.00 423.95,210.00 C424.86,210.00 427.15,208.86 429.04,207.47 C430.93,206.08 434.14,204.44 436.19,203.82 C438.91,203.01 440.35,201.79 441.54,199.28 C443.04,196.12 443.04,195.55 441.52,191.77 C440.63,189.52 438.99,186.52 437.90,185.09 C434.27,180.36 429.00,172.06 429.00,171.08 C429.00,170.55 428.20,169.53 427.21,168.81 C426.23,168.09 423.04,164.26 420.11,160.30 C414.59,152.82 411.35,150.00 408.26,150.00 C407.23,150.00 396.59,159.90 383.59,172.95 C361.53,195.10 360.75,196.01 361.37,199.09 C361.72,200.85 363.69,204.19 365.75,206.53 C370.96,212.43 376.00,219.47 376.00,220.85 C376.00,221.48 377.74,223.79 379.87,225.99 ZM 52.07 384.75 C52.11,314.76 52.52,255.25 52.97,252.50 C54.96,240.39 56.39,234.34 57.76,232.25 C59.47,229.64 63.64,229.27 67.80,231.36 C69.28,232.11 72.73,233.01 75.46,233.37 C78.19,233.73 82.08,234.88 84.11,235.94 C86.13,236.99 90.65,238.42 94.14,239.10 C97.64,239.78 102.75,241.39 105.50,242.66 C108.25,243.94 111.62,244.99 113.00,245.00 C120.41,245.04 129.00,250.49 129.00,255.15 C129.00,256.21 127.99,258.97 126.75,261.29 L 124.50 265.50 L 124.22 388.75 L 123.95 512.00 L 119.97 512.00 L 120.36 393.75 C120.59,326.06 121.18,271.22 121.75,265.50 C122.30,260.00 122.52,254.93 122.25,254.22 C121.33,251.81 113.49,248.16 107.71,247.46 C104.33,247.05 100.54,245.82 98.58,244.49 C96.53,243.10 92.87,241.95 89.08,241.51 C85.64,241.11 80.83,239.68 78.20,238.28 C74.67,236.40 71.85,235.74 66.84,235.64 C63.18,235.56 59.95,235.73 59.67,236.00 C59.39,236.28 58.70,240.69 58.13,245.81 C57.54,251.11 56.32,256.49 55.29,258.31 C53.60,261.32 53.48,268.44 53.22,386.75 L 52.95 512.00 L 52.00 512.00 ZM 182.76 355.06 C173.31,352.02 167.51,344.21 167.51,334.50 C167.50,330.10 168.09,327.50 169.72,324.75 C172.68,319.73 171.87,318.00 166.56,318.00 C161.40,318.00 160.18,317.03 163.22,315.34 C165.44,314.11 165.41,314.07 162.25,314.04 C158.69,314.00 158.01,312.66 160.75,311.11 C162.15,310.32 162.25,309.87 161.25,308.86 C160.56,308.17 160.00,306.96 160.00,306.18 C160.00,305.05 160.52,305.11 162.67,306.52 C165.20,308.17 165.40,308.17 166.60,306.53 C168.27,304.25 170.28,305.54 169.40,308.33 C168.80,310.19 168.92,310.31 170.27,309.19 C172.35,307.46 173.44,309.31 171.97,312.06 C171.07,313.74 171.18,314.54 172.49,315.99 C174.09,317.76 174.34,317.73 179.69,315.28 C184.17,313.23 186.18,312.86 190.18,313.33 C211.10,315.81 217.24,342.12 199.35,352.63 C194.81,355.30 187.05,356.44 182.76,355.06 ZM 392.91 421.25 C392.76,271.07 392.77,271.41 388.36,259.83 C386.77,255.67 386.73,254.87 388.03,252.45 C390.13,248.51 392.80,247.11 401.64,245.32 C405.96,244.44 410.54,242.92 411.80,241.93 C413.07,240.94 416.67,239.83 419.80,239.46 C422.94,239.10 427.80,237.73 430.62,236.43 C433.43,235.13 437.71,233.77 440.12,233.41 C442.53,233.05 446.89,232.15 449.82,231.41 C457.75,229.42 458.58,230.28 459.36,241.31 C459.71,246.26 460.00,309.19 460.00,381.15 L 460.00 512.00 L 459.00 512.00 L 458.93 380.25 C458.89,307.79 458.52,246.13 458.10,243.23 C457.69,240.33 456.80,237.40 456.13,236.73 C453.88,234.48 442.82,235.44 437.88,238.30 C435.31,239.79 431.03,241.13 427.50,241.53 C424.20,241.92 420.07,243.09 418.32,244.15 C416.58,245.21 411.95,246.68 408.04,247.43 C401.55,248.66 392.95,252.87 393.03,254.76 C393.05,255.17 393.71,261.80 394.51,269.50 C395.68,280.84 395.96,305.18 395.98,397.75 L 396.00 512.00 L 393.00 512.00 ZM 197.75 350.18 C199.54,348.90 202.24,346.24 203.75,344.26 C206.06,341.24 206.52,339.62 206.60,334.18 C206.67,329.52 206.25,327.21 205.10,325.97 C204.22,325.02 202.82,323.34 202.00,322.25 C199.79,319.33 192.60,316.00 188.50,316.00 C185.78,316.00 182.22,317.22 179.91,318.61 C180.45,318.27 181.07,317.92 181.78,317.55 C185.54,315.59 186.02,315.08 184.14,315.05 C182.84,315.02 180.04,315.97 177.93,317.16 C174.63,319.01 173.85,319.12 172.44,317.95 C171.21,316.93 170.93,315.56 171.33,312.55 C171.87,308.55 171.86,308.53 170.15,310.80 C168.08,313.55 166.81,312.69 167.64,309.10 C168.22,306.59 168.18,306.57 166.71,308.49 C165.19,310.46 165.17,310.46 162.84,308.51 C161.55,307.44 161.06,307.19 161.75,307.98 C163.64,310.13 163.25,311.81 160.75,312.29 C159.51,312.53 160.41,312.79 162.75,312.86 C167.66,313.02 168.79,315.60 164.25,316.28 C162.50,316.55 163.18,316.75 166.13,316.85 C172.69,317.06 173.78,318.76 171.02,324.47 C169.81,326.95 169.06,329.55 169.34,330.24 C169.69,331.12 169.88,331.04 169.96,330.00 C170.07,328.50 171.36,326.57 172.82,325.21 C171.19,327.39 170.00,331.35 170.00,335.67 C170.00,339.32 172.69,344.03 177.33,348.54 C181.35,352.43 181.74,352.58 188.00,352.54 C193.16,352.51 195.17,352.02 197.75,350.18 ZM 349.31 310.63 C348.67,312.29 348.34,312.29 344.35,310.55 C341.72,309.41 338.95,305.47 340.16,304.61 C342.68,302.80 348.47,300.00 349.67,300.00 C350.95,300.00 351.11,300.81 350.53,304.63 C350.15,307.17 349.60,309.87 349.31,310.63 ZM 349.00 305.44 C349.00,303.00 348.57,301.00 348.03,301.00 C346.57,301.00 340.00,304.28 340.00,305.01 C340.00,305.95 344.26,309.67 346.00,310.24 C348.44,311.04 349.00,310.13 349.00,305.44 ZM 151.50 409.11 C148.00,408.20 144.90,406.73 142.23,404.70 C142.74,405.06 143.27,405.41 143.83,405.74 C146.99,407.68 148.88,407.99 157.50,407.97 C163.87,407.96 167.16,407.66 169.99,406.72 C166.48,407.95 162.10,409.12 159.33,409.40 C156.68,409.67 153.15,409.54 151.50,409.11 ZM 347.74 408.57 C345.91,407.92 344.54,407.31 343.42,406.57 C345.00,407.54 347.94,408.00 352.59,408.00 C356.96,408.00 359.07,407.78 360.82,406.91 C358.03,408.48 354.22,410.01 352.78,409.96 C352.08,409.93 349.81,409.31 347.74,408.57 ZM 337.16 307.32 C338.11,307.81 339.53,308.82 340.84,309.98 C342.68,311.60 345.04,313.20 346.09,313.53 C347.14,313.86 347.99,314.89 347.98,315.82 L 347.98 315.83 C347.96,314.84 346.39,313.57 344.02,312.62 C341.83,311.75 339.47,310.12 338.78,309.02 C338.34,308.31 337.72,307.68 337.16,307.32 ZM 0.38 494.06 C0.52,492.78 0.71,492.57 0.94,493.50 C1.45,495.61 2.21,497.58 3.21,499.39 C2.85,498.79 2.50,498.16 2.16,497.50 ZM 494.21 0.37 L 497.50 1.87 C497.57,1.90 497.63,1.93 497.70,1.96 C496.54,1.55 495.17,1.16 494.00,0.93 C492.83,0.70 492.91,0.51 494.21,0.37 ZM 133.03 385.63 C132.79,380.67 133.14,375.26 134.16,371.86 C134.62,370.32 135.39,368.73 136.36,367.22 C133.84,371.32 133.00,375.91 133.00,383.92 C133.00,384.50 133.01,385.07 133.03,385.63 ZM 15.27 1.96 L 18.56 0.47 C19.24,0.60 19.24,0.75 18.50,0.93 C17.39,1.20 16.31,1.54 15.27,1.96 ZM 0.46 18.56 L 1.75 15.84 C1.43,16.71 1.16,17.59 0.94,18.50 C0.75,19.25 0.59,19.26 0.46,18.56 ZM 170.72 406.46 C171.09,406.31 171.46,406.16 171.82,405.99 C173.84,405.08 174.97,404.58 175.38,403.73 C175.46,403.56 175.52,403.39 175.55,403.19 C175.58,403.61 175.56,403.91 175.47,404.05 C175.11,404.64 173.20,405.55 170.72,406.46 ZM 337.59 390.10 C338.47,386.75 340.61,383.79 343.86,381.78 C340.89,383.61 338.61,386.72 337.59,390.10 ZM 342.94 406.24 C341.35,405.04 340.26,403.47 338.93,400.86 C338.40,399.81 337.98,398.76 337.69,397.70 C338.75,401.01 340.89,404.63 342.94,406.24 ZM 510.57 15.44 C510.21,14.01 508.20,11.19 505.88,8.54 C508.25,11.07 510.14,13.71 510.57,15.44 ZM 148.62 358.42 C146.45,358.76 144.68,359.35 143.11,360.25 C144.05,359.64 145.00,359.18 145.91,358.91 C146.55,358.72 147.49,358.55 148.62,358.42 ZM 193.38 337.81 C193.45,337.71 193.52,337.61 193.59,337.51 C194.53,336.07 194.93,334.27 194.54,333.26 C195.10,334.72 194.53,336.46 193.38,337.81 ZM 364.39 404.33 L 365.32 403.60 L 366.78 405.80 C367.99,407.62 368.99,407.96 374.56,408.00 C368.95,407.96 367.99,407.63 366.74,405.75 C365.65,404.12 365.30,403.72 364.39,404.33 ZM 184.45 337.56 C184.46,337.59 184.48,337.61 184.49,337.63 C183.48,336.32 182.93,334.62 183.18,332.93 C183.00,334.14 183.57,336.22 184.45,337.56 ZM 135.05 396.08 C135.00,395.98 134.95,395.89 134.90,395.79 C134.30,394.63 133.84,392.82 133.51,390.68 C133.85,392.66 134.35,394.45 135.05,396.08 ZM 160.71 396.77 C158.40,396.97 156.75,396.90 155.53,396.60 C156.58,396.86 158.66,396.92 160.71,396.77 ZM 361.93 406.24 C362.13,406.11 362.33,405.96 362.53,405.80 L 363.80 404.80 C363.66,404.92 363.50,405.06 363.33,405.21 C362.97,405.53 362.49,405.88 361.93,406.24 ZM 165.69 396.12 C164.64,396.29 163.67,396.43 162.78,396.55 L 162.81 396.54 C163.88,396.38 164.83,396.24 165.69,396.12 ZM 18.29 511.41 L 19.50 511.96 L 19.45 511.96 ZM 341.00 330.50 C342.69,328.04 344.33,325.18 345.59,322.59 C344.33,325.18 342.70,328.03 341.00,330.50 ZM 177.86 320.33 C177.58,320.72 177.48,321.10 177.61,321.43 C177.48,321.10 177.57,320.73 177.86,320.33 Z" fill="rgb(77,108,124)"/>
<path d="M 119.97 512.00 L 52.95 512.00 L 53.22 386.75 C53.48,268.44 53.60,261.32 55.29,258.31 C56.32,256.49 57.54,251.11 58.13,245.81 C58.70,240.69 59.39,236.28 59.67,236.00 C59.95,235.73 63.18,235.56 66.84,235.64 C71.85,235.74 74.67,236.40 78.20,238.28 C80.83,239.68 85.64,241.11 89.08,241.51 C92.87,241.95 96.53,243.10 98.58,244.49 C100.54,245.82 104.33,247.05 107.71,247.46 C113.49,248.16 121.33,251.81 122.25,254.22 C122.52,254.93 122.30,260.00 121.75,265.50 C121.18,271.22 120.59,326.06 120.36,393.75 ZM 458.93 380.25 L 459.00 512.00 L 396.00 512.00 L 395.98 397.75 C395.96,305.18 395.68,280.84 394.51,269.50 C393.71,261.80 393.05,255.17 393.03,254.76 C392.95,252.87 401.55,248.66 408.04,247.43 C411.95,246.68 416.58,245.21 418.32,244.15 C420.07,243.09 424.20,241.92 427.50,241.53 C431.03,241.13 435.31,239.79 437.88,238.30 C442.82,235.44 453.88,234.48 456.13,236.73 C456.80,237.40 457.69,240.33 458.10,243.23 C458.52,246.13 458.89,307.79 458.93,380.25 ZM 240.80 155.32 C238.69,154.77 238.31,153.44 237.51,144.00 C236.49,131.77 234.96,120.83 233.53,115.50 C232.79,112.75 231.66,104.51 231.01,97.19 C230.36,89.87 228.96,80.28 227.91,75.88 C225.68,66.55 225.51,62.65 227.26,61.20 C230.56,58.46 242.35,57.00 261.20,57.00 C277.56,57.00 281.27,57.29 287.20,59.06 C291.00,60.19 294.36,61.77 294.66,62.56 C294.97,63.35 294.50,67.04 293.62,70.75 C292.74,74.46 291.55,83.35 290.96,90.50 C290.37,97.65 289.04,106.65 287.99,110.50 C286.94,114.35 285.59,123.35 284.98,130.50 C283.61,146.44 282.30,153.11 280.21,154.75 C279.06,155.66 273.64,155.97 260.56,155.88 C250.63,155.82 241.73,155.57 240.80,155.32 ZM 242.80 154.32 C245.43,155.01 275.64,155.08 277.42,154.39 C278.29,154.06 279.00,152.73 279.00,151.43 C279.00,150.13 279.90,146.79 281.00,144.01 C282.31,140.68 283.19,135.43 283.55,128.72 C284.23,116.28 285.61,106.99 287.66,101.00 C288.51,98.53 289.58,90.65 290.05,83.50 C290.51,76.35 291.19,68.86 291.56,66.85 C292.64,60.97 291.09,60.58 264.78,60.17 C250.21,59.94 239.53,60.24 235.03,61.00 L 228.00 62.18 L 228.00 65.63 C228.00,67.52 228.69,70.12 229.53,71.40 C230.59,73.02 231.34,78.28 232.00,88.62 C233.09,105.81 233.80,110.70 235.64,113.55 C236.44,114.78 237.38,121.40 237.98,130.05 C239.36,149.76 240.13,153.62 242.80,154.32 ZM 332.50 177.00 C330.42,175.35 328.19,174.00 327.54,174.00 C326.89,174.00 324.59,172.66 322.43,171.03 C320.27,169.39 317.68,168.04 316.68,168.03 C314.23,167.99 311.06,166.27 307.75,163.19 C304.69,160.33 304.34,158.40 306.37,155.47 C307.12,154.39 308.26,151.05 308.90,148.06 C309.54,145.06 311.14,140.11 312.45,137.06 C313.76,134.00 315.11,129.94 315.44,128.02 C315.77,126.11 316.89,122.74 317.93,120.52 C318.97,118.31 320.57,113.80 321.50,110.50 C323.40,103.70 326.32,98.43 328.99,97.01 C330.34,96.28 332.14,96.75 336.15,98.87 C339.09,100.42 343.04,101.99 344.92,102.36 C346.80,102.72 349.72,104.07 351.42,105.36 C353.11,106.64 356.19,108.25 358.25,108.93 C360.31,109.60 362.00,110.49 362.00,110.91 C362.00,111.32 363.24,112.28 364.75,113.04 C366.26,113.80 370.31,116.22 373.75,118.42 C381.00,123.07 381.35,124.39 377.01,131.00 C371.59,139.28 362.95,151.47 359.55,155.64 C358.15,157.36 357.00,159.10 357.00,159.51 C357.00,159.91 355.76,161.73 354.25,163.56 C352.74,165.39 349.92,169.20 348.00,172.03 C346.08,174.86 343.91,177.81 343.18,178.59 C341.02,180.90 336.57,180.23 332.50,177.00 ZM 175.99 175.84 C174.07,173.46 170.35,168.35 167.71,164.50 C165.08,160.65 161.57,155.70 159.92,153.50 C157.18,149.87 152.76,143.58 148.32,137.00 C147.39,135.62 145.62,133.38 144.39,132.00 C143.16,130.62 141.85,127.85 141.48,125.84 C140.90,122.65 141.12,122.01 143.15,120.96 C144.44,120.30 146.62,118.74 148.00,117.49 C149.38,116.24 151.62,114.88 153.00,114.47 C154.38,114.05 156.89,112.65 158.59,111.36 C160.30,110.06 162.12,109.00 162.64,109.00 C163.16,109.00 166.05,107.44 169.05,105.53 C172.05,103.61 175.36,102.04 176.40,102.03 C177.45,102.01 181.22,100.62 184.78,98.94 C188.34,97.26 191.87,96.12 192.63,96.41 C193.38,96.70 194.75,98.64 195.67,100.72 C196.59,102.80 198.16,106.33 199.17,108.57 C200.18,110.80 201.00,113.73 201.01,115.07 C201.02,116.40 202.20,119.97 203.64,123.00 C205.09,126.03 206.64,130.69 207.09,133.36 C207.54,136.04 208.83,139.98 209.95,142.13 C211.07,144.27 212.70,149.19 213.58,153.05 L 215.18 160.08 L 212.60 163.46 C211.01,165.54 208.77,167.10 206.76,167.53 C203.05,168.33 191.55,174.38 188.39,177.20 C187.23,178.23 184.76,179.33 182.88,179.63 C179.80,180.13 179.16,179.78 175.99,175.84 ZM 123.50 223.92 C118.00,221.11 111.25,217.53 108.50,215.97 C105.75,214.40 101.93,212.37 100.00,211.46 C98.07,210.54 95.38,209.17 94.00,208.42 C92.62,207.66 89.93,206.33 88.00,205.47 C81.11,202.39 80.26,201.77 78.77,198.65 C78.40,197.87 78.10,197.32 77.97,196.72 C77.54,194.80 78.94,192.47 85.84,180.96 C86.21,180.34 86.60,179.68 87.01,179.00 C94.49,166.51 107.41,151.29 111.23,150.45 C113.88,149.87 115.44,151.15 132.30,167.82 C142.31,177.71 152.64,187.71 155.25,190.03 C161.28,195.39 161.68,199.16 156.75,204.38 C152.92,208.44 149.47,213.10 143.69,222.00 C138.14,230.55 136.73,230.68 123.50,223.92 ZM 379.87 225.99 C377.74,223.79 376.00,221.48 376.00,220.85 C376.00,219.47 370.96,212.43 365.75,206.53 C363.69,204.19 361.72,200.85 361.37,199.09 C360.75,196.01 361.53,195.10 383.59,172.95 C396.59,159.90 407.23,150.00 408.26,150.00 C411.35,150.00 414.59,152.82 420.11,160.30 C423.04,164.26 426.23,168.09 427.21,168.81 C428.20,169.53 429.00,170.55 429.00,171.08 C429.00,172.06 434.27,180.36 437.90,185.09 C438.99,186.52 440.63,189.52 441.52,191.77 C443.04,195.55 443.04,196.12 441.54,199.28 C440.35,201.79 438.91,203.01 436.19,203.82 C434.14,204.44 430.93,206.08 429.04,207.47 C427.15,208.86 424.86,210.00 423.95,210.00 C423.03,210.00 420.63,211.12 418.60,212.49 C416.58,213.86 413.26,215.83 411.22,216.86 C409.17,217.89 403.57,220.77 398.77,223.26 C384.48,230.67 384.43,230.68 379.87,225.99 ZM 130.75 226.31 C131.71,226.56 133.94,226.82 135.70,226.88 C138.43,226.98 139.15,226.48 140.57,223.50 C141.48,221.57 142.56,220.00 142.96,220.00 C143.37,220.00 144.52,218.17 145.53,215.93 C146.54,213.69 148.11,211.32 149.03,210.68 C149.94,210.03 151.28,208.38 152.00,207.02 C152.72,205.65 154.37,203.71 155.66,202.70 C159.08,200.00 158.88,194.81 155.26,192.43 C153.75,191.44 143.82,181.94 133.20,171.32 C121.35,159.45 113.14,152.00 111.95,152.00 C110.88,152.00 109.31,152.79 108.47,153.75 C102.75,160.31 94.00,171.32 94.00,171.96 C94.00,172.38 92.94,173.80 91.63,175.11 C90.33,176.43 88.93,178.62 88.52,180.00 C88.11,181.38 86.73,183.62 85.46,185.00 C81.92,188.82 80.12,194.94 81.53,198.38 C82.87,201.67 84.63,202.96 87.80,202.98 C89.06,202.99 91.20,204.10 92.55,205.45 C93.90,206.80 96.61,208.21 98.57,208.58 C100.54,208.95 103.35,210.25 104.82,211.48 C106.29,212.71 109.53,214.61 112.00,215.69 C114.47,216.78 117.12,218.42 117.87,219.34 C118.63,220.25 120.11,221.00 121.17,221.00 C123.58,221.00 129.00,223.74 129.00,224.95 C129.00,225.45 129.79,226.06 130.75,226.31 ZM 178.03 175.58 C179.25,178.79 182.95,178.76 186.82,175.50 C188.45,174.12 190.46,173.00 191.27,173.00 C192.09,173.00 193.34,172.30 194.05,171.43 C195.75,169.39 200.42,167.00 202.72,167.00 C203.72,167.00 206.28,165.82 208.40,164.37 L 212.27 161.75 L 211.68 154.75 C211.32,150.43 210.48,147.08 209.48,145.98 C207.72,144.04 205.03,135.00 205.01,130.97 C205.01,129.58 204.15,127.72 203.11,126.82 C201.88,125.77 200.79,122.70 200.01,118.08 C199.35,114.16 198.10,110.24 197.22,109.37 C196.35,108.49 195.10,105.69 194.46,103.14 C193.06,97.61 191.13,96.87 187.08,100.28 C185.27,101.80 182.27,102.97 179.13,103.39 C176.36,103.76 173.48,104.66 172.74,105.40 C170.95,107.20 165.44,110.00 163.70,110.00 C162.94,110.00 161.46,110.94 160.43,112.08 C159.39,113.23 157.03,114.80 155.18,115.57 C153.33,116.34 150.48,118.10 148.83,119.49 C147.19,120.87 145.21,122.00 144.42,122.00 C142.00,122.00 142.73,127.39 145.50,130.00 C146.88,131.29 148.00,132.86 148.00,133.49 C148.00,134.11 149.35,135.92 151.00,137.50 C152.65,139.08 154.00,140.87 154.00,141.47 C154.00,142.08 155.33,144.13 156.96,146.04 C158.59,147.94 159.94,150.06 159.96,150.74 C159.98,151.43 161.35,153.19 163.00,154.66 C164.65,156.13 166.00,157.91 166.00,158.61 C166.00,159.32 167.17,161.16 168.60,162.70 C170.03,164.24 171.89,166.85 172.74,168.50 C173.58,170.15 174.91,171.87 175.69,172.33 C176.47,172.79 177.52,174.25 178.03,175.58 ZM 334.91 176.40 C336.98,178.89 342.14,178.13 343.64,175.12 C345.21,171.94 349.85,165.49 353.25,161.74 C354.76,160.07 356.00,158.16 356.00,157.51 C356.00,156.85 356.95,155.45 358.10,154.41 C359.26,153.36 360.90,151.15 361.74,149.50 C363.29,146.49 366.63,141.99 370.67,137.48 C371.87,136.15 373.16,134.04 373.54,132.78 C373.92,131.53 375.11,129.05 376.18,127.27 C378.14,124.03 377.94,122.00 375.67,122.00 C375.00,122.00 372.89,120.72 370.98,119.15 C369.07,117.59 365.81,115.51 363.75,114.54 C361.69,113.57 360.00,112.41 360.00,111.97 C360.00,111.52 357.72,110.40 354.93,109.48 C352.14,108.55 349.63,107.19 349.34,106.45 C349.06,105.71 346.28,104.56 343.16,103.89 C340.05,103.23 336.02,101.59 334.20,100.25 C330.36,97.43 328.52,97.78 327.58,101.52 C327.21,102.99 326.04,105.39 324.97,106.85 C323.90,108.31 322.56,111.97 322.00,115.00 C321.44,118.03 320.16,121.62 319.15,123.00 C318.15,124.38 317.03,127.75 316.66,130.50 C316.29,133.25 314.87,137.68 313.49,140.35 C312.12,143.02 310.73,147.07 310.41,149.35 C310.10,151.63 309.36,154.76 308.78,156.30 C307.82,158.82 308.06,159.46 311.07,162.57 C312.98,164.54 316.17,166.50 318.46,167.11 C320.68,167.70 323.40,169.00 324.50,169.99 C325.60,170.99 328.08,172.46 330.00,173.25 C331.92,174.04 334.14,175.46 334.91,176.40 ZM 380.54 223.78 C383.93,227.64 384.24,227.77 387.67,226.83 C389.65,226.28 392.21,224.95 393.37,223.87 C394.53,222.79 397.36,221.43 399.67,220.85 C401.98,220.27 404.09,219.22 404.36,218.51 C404.63,217.80 407.02,216.42 409.68,215.43 C412.33,214.45 415.27,212.87 416.20,211.91 C417.14,210.96 419.61,209.64 421.70,208.97 C423.79,208.30 426.40,206.95 427.50,205.97 C428.60,204.99 431.37,203.64 433.65,202.97 C440.34,200.99 442.08,194.12 437.46,187.91 C432.41,181.13 429.99,177.44 428.52,174.31 C427.69,172.55 426.00,169.98 424.76,168.60 C423.52,167.22 421.30,164.61 419.84,162.80 C413.13,154.47 410.67,152.00 409.12,152.00 C408.20,152.00 397.67,161.73 385.72,173.61 C366.42,192.82 364.00,195.58 364.00,198.44 C364.00,200.61 364.84,202.44 366.60,204.08 C368.02,205.41 369.82,207.72 370.60,209.21 C371.37,210.70 373.13,213.04 374.50,214.41 C375.88,215.79 377.00,217.55 377.00,218.32 C377.00,219.10 378.59,221.56 380.54,223.78 ZM 191.93 407.02 C184.31,402.99 180.23,392.31 181.46,379.60 C182.28,371.19 184.58,365.59 188.87,361.56 C191.44,359.15 193.07,358.55 198.00,358.19 C203.94,357.76 210.00,359.27 210.00,361.18 C210.00,361.70 210.45,361.84 211.00,361.50 C211.55,361.16 212.00,357.36 212.00,353.07 C212.00,343.03 212.81,339.00 214.83,339.00 C215.69,339.00 219.01,339.77 222.20,340.72 L 228.00 342.44 L 228.00 372.10 C228.00,388.41 227.72,403.16 227.38,404.88 C226.75,407.99 226.73,408.00 220.28,408.00 C214.65,408.00 213.74,407.74 213.29,406.00 C213.03,405.01 212.90,404.41 212.56,404.24 C212.09,404.00 211.18,404.61 208.87,406.18 C208.72,406.28 208.57,406.39 208.40,406.50 C203.88,409.57 197.15,409.78 191.93,407.02 ZM 288.59 407.14 C288.29,406.66 288.02,391.95 287.97,374.44 L 287.89 342.60 L 293.20 340.87 C301.48,338.16 302.63,338.37 303.36,342.75 C303.70,344.81 303.98,353.17 303.99,361.33 C304.00,372.63 304.29,376.07 305.23,375.76 C305.91,375.53 308.69,371.44 311.41,366.67 L 316.35 358.00 L 325.17 358.00 C330.03,358.00 334.00,358.20 334.00,358.45 C334.00,358.69 330.85,363.50 327.00,369.14 C323.15,374.78 320.00,379.96 320.00,380.66 C320.00,381.36 323.60,387.42 328.00,394.12 C332.40,400.83 336.00,406.69 336.00,407.16 C336.00,407.62 332.16,408.00 327.46,408.00 L 318.92 408.00 L 312.85 398.50 C309.50,393.27 306.14,389.00 305.38,389.00 C304.30,389.00 304.00,391.08 304.00,398.50 L 304.00 408.00 L 296.56 408.00 C292.47,408.00 288.88,407.61 288.59,407.14 ZM 337.59 390.10 C338.61,386.72 340.89,383.61 343.86,381.78 C346.62,380.07 349.56,379.40 356.00,379.01 L 364.50 378.50 L 364.80 375.38 C365.40,369.24 357.76,366.39 354.41,371.50 C352.92,373.77 352.13,374.00 345.88,374.00 C339.04,374.00 339.00,373.98 339.00,371.25 C339.01,366.96 342.37,362.48 347.42,360.04 C351.40,358.11 353.31,357.85 361.44,358.15 C371.94,358.54 374.85,359.89 378.45,366.04 C380.09,368.84 380.52,372.14 381.10,386.44 C381.48,395.82 382.11,404.51 382.51,405.75 C383.22,407.95 383.06,408.00 375.74,408.00 C375.33,408.00 374.93,408.00 374.56,408.00 L 374.55 408.00 C368.99,407.96 367.99,407.62 366.78,405.80 L 365.32 403.60 L 364.39 404.33 C364.22,404.45 364.02,404.61 363.80,404.80 L 362.53 405.80 C362.33,405.96 362.13,406.11 361.93,406.24 C361.59,406.46 361.21,406.69 360.82,406.91 C359.07,407.78 356.96,408.00 352.59,408.00 C347.94,408.00 345.00,407.54 343.42,406.57 C343.26,406.46 343.10,406.35 342.94,406.24 L 342.94 406.24 C340.89,404.63 338.75,401.01 337.69,397.70 C336.97,395.10 336.96,392.50 337.59,390.10 ZM 133.03 385.63 C133.01,385.07 133.00,384.50 133.00,383.92 C133.00,375.91 133.84,371.32 136.36,367.22 C138.15,364.40 140.63,361.83 143.11,360.25 C144.68,359.35 146.45,358.76 148.62,358.42 C151.18,358.12 154.70,358.00 157.78,358.14 C167.56,358.59 170.28,360.21 174.25,367.98 C176.51,372.40 177.00,374.66 177.00,380.68 L 177.00 388.00 L 163.56 388.00 C156.17,388.00 149.89,388.37 149.61,388.82 C148.67,390.35 152.92,395.94 155.53,396.60 C156.75,396.90 158.40,396.97 160.71,396.77 C161.41,396.72 162.12,396.65 162.78,396.55 C163.67,396.43 164.64,396.29 165.69,396.12 C172.88,395.11 173.30,395.58 174.63,399.37 C175.14,400.83 175.47,402.28 175.55,403.19 C175.52,403.39 175.46,403.56 175.38,403.73 C174.97,404.58 173.84,405.08 171.82,405.99 C171.46,406.16 171.09,406.31 170.72,406.46 C170.48,406.54 170.24,406.63 169.99,406.72 L 169.99 406.72 C167.16,407.66 163.87,407.96 157.50,407.97 C148.88,407.99 146.99,407.68 143.83,405.74 C143.27,405.41 142.74,405.06 142.23,404.70 C139.30,402.48 136.89,399.59 135.05,396.08 C134.35,394.45 133.85,392.66 133.51,390.68 C133.28,389.13 133.11,387.41 133.03,385.63 ZM 243.19 406.98 C237.04,403.23 236.05,399.10 236.02,377.25 L 236.00 358.00 L 251.00 358.00 L 251.00 374.87 C251.00,390.41 251.16,391.94 253.07,394.37 C255.27,397.16 258.70,397.77 262.07,395.96 C263.87,395.00 264.00,393.70 264.00,376.46 L 264.00 358.00 L 280.00 358.00 L 280.00 408.00 L 273.41 408.00 C267.65,408.00 266.75,407.74 266.29,406.00 C266.03,405.01 265.90,404.41 265.56,404.24 C265.09,404.00 264.18,404.61 261.87,406.18 C261.72,406.28 261.57,406.39 261.40,406.50 C256.61,409.76 248.12,409.98 243.19,406.98 ZM 335.45 349.53 C334.65,347.62 334.00,345.60 334.00,345.03 C334.00,344.46 333.62,344.00 333.16,344.00 C332.39,344.00 328.53,341.25 318.50,333.57 C315.69,331.42 313.02,330.36 309.50,330.00 C303.40,329.39 303.28,328.40 308.45,321.20 C312.08,316.15 312.33,316.00 317.07,316.00 C321.65,316.00 322.31,315.65 327.55,310.49 C333.07,305.06 347.36,297.00 351.47,297.00 C355.43,297.00 351.14,320.78 345.84,328.22 C343.93,330.91 343.91,331.22 345.49,335.98 C346.43,338.80 346.79,341.48 346.32,342.22 C343.38,346.83 338.48,353.00 337.76,353.00 C337.28,353.00 336.25,351.44 335.45,349.53 ZM 341.00 330.50 L 341.01 330.49 C342.69,328.04 344.33,325.18 345.59,322.60 L 345.59 322.59 C347.01,319.68 347.96,317.12 347.98,315.86 C347.98,315.85 347.98,315.84 347.98,315.83 L 347.98 315.82 C347.99,314.89 347.14,313.86 346.09,313.53 C345.04,313.20 342.68,311.60 340.84,309.98 C339.53,308.82 338.11,307.81 337.16,307.32 C336.85,307.12 336.55,307.00 336.30,307.00 C334.52,307.00 324.56,317.02 322.63,320.75 L 320.97 323.96 L 328.24 329.42 C332.23,332.43 336.04,334.92 336.70,334.95 C337.36,334.98 339.30,332.97 341.00,330.50 ZM 209.69 394.83 C211.79,392.85 212.00,391.79 212.00,383.15 C212.00,371.97 210.93,370.00 204.87,370.00 C201.86,370.00 200.69,370.55 199.35,372.59 C197.45,375.50 196.43,384.15 197.39,389.28 C198.72,396.37 205.02,399.21 209.69,394.83 ZM 193.38 337.81 C192.29,339.08 190.67,340.00 189.00,340.00 C187.23,340.00 185.59,339.04 184.49,337.63 C184.48,337.61 184.46,337.59 184.45,337.56 C183.57,336.22 183.00,334.14 183.18,332.93 C183.68,329.52 180.63,328.14 177.89,330.54 C175.81,332.37 175.71,332.38 176.33,330.66 C178.12,325.76 178.13,324.26 176.37,323.59 C175.13,323.11 173.88,323.78 172.82,325.21 C171.36,326.57 170.07,328.50 169.96,330.00 C169.88,331.04 169.69,331.12 169.34,330.24 C169.06,329.55 169.81,326.95 171.02,324.47 C173.78,318.76 172.69,317.06 166.13,316.85 C163.18,316.75 162.50,316.55 164.25,316.28 C168.79,315.60 167.66,313.02 162.75,312.86 C160.41,312.79 159.51,312.53 160.75,312.29 C163.25,311.81 163.64,310.13 161.75,307.98 C161.06,307.19 161.55,307.44 162.84,308.51 C165.17,310.46 165.19,310.46 166.71,308.49 C168.18,306.57 168.22,306.59 167.64,309.10 C166.81,312.69 168.08,313.55 170.15,310.80 C171.86,308.53 171.87,308.55 171.33,312.55 C170.93,315.56 171.21,316.93 172.44,317.95 C173.85,319.12 174.63,319.01 177.93,317.16 C180.04,315.97 182.84,315.02 184.14,315.05 C186.02,315.08 185.54,315.59 181.78,317.55 C181.07,317.92 180.45,318.27 179.91,318.61 C178.98,319.18 178.25,319.77 177.86,320.33 C177.57,320.73 177.48,321.10 177.61,321.43 L 177.61 321.43 C178.35,323.36 181.11,324.29 182.37,323.03 C182.94,322.46 185.22,322.01 187.45,322.02 C190.43,322.03 191.10,322.29 190.00,323.00 C189.18,323.53 187.51,323.98 186.31,323.98 C185.10,323.99 183.83,324.47 183.47,325.04 C182.47,326.67 184.98,329.00 187.74,329.00 C189.75,329.00 190.02,329.27 189.11,330.37 C188.48,331.13 188.23,332.45 188.56,333.30 C189.02,334.48 188.66,334.72 187.08,334.31 C184.78,333.71 184.34,334.94 186.20,336.80 C188.40,339.00 191.04,338.14 192.47,334.75 C193.61,332.07 193.97,331.81 194.54,333.26 C194.93,334.27 194.53,336.07 193.59,337.51 C193.52,337.61 193.45,337.71 193.38,337.81 ZM 363.65 395.87 C364.39,395.26 365.00,393.01 365.00,390.88 L 365.00 387.00 L 360.56 387.00 C357.10,387.00 355.77,387.49 354.56,389.22 C352.55,392.09 352.59,393.89 354.73,396.25 C356.56,398.28 360.98,398.09 363.65,395.87 ZM 349.31 310.63 C349.60,309.87 350.15,307.17 350.53,304.63 C351.11,300.81 350.95,300.00 349.67,300.00 C348.47,300.00 342.68,302.80 340.16,304.61 C338.95,305.47 341.72,309.41 344.35,310.55 C348.34,312.29 348.67,312.29 349.31,310.63 ZM 161.64 376.49 C161.96,375.66 161.49,373.86 160.59,372.49 C157.36,367.56 149.00,370.25 149.00,376.22 C149.00,377.73 149.92,378.00 155.03,378.00 C159.48,378.00 161.21,377.61 161.64,376.49 ZM 333.97 338.25 C333.96,337.27 331.65,334.96 328.72,333.00 C325.85,331.08 322.89,328.92 322.13,328.21 C320.51,326.67 318.59,327.10 318.28,329.08 C318.05,330.52 330.45,339.82 332.75,339.94 C333.44,339.97 333.99,339.21 333.97,338.25 ZM 318.03 322.93 L 320.04 319.00 L 316.51 319.00 C313.59,319.00 312.62,319.57 310.99,322.25 C308.42,326.46 308.47,326.80 311.75,327.22 C315.42,327.69 315.71,327.49 318.03,322.93 ZM 341.41 344.53 C343.35,341.99 343.88,340.39 343.42,338.53 C343.07,337.14 342.30,336.00 341.71,336.00 C339.88,336.00 336.00,340.24 336.00,342.24 C336.00,344.03 337.67,348.00 338.42,348.00 C338.61,348.00 339.95,346.44 341.41,344.53 ZM 313.00 350.58 C313.00,348.84 319.02,340.82 320.75,340.25 C322.97,339.51 322.09,341.93 318.29,347.03 C314.50,352.10 313.00,353.11 313.00,350.58 ZM 312.00 343.13 C312.00,341.84 316.00,337.00 317.07,337.00 C318.57,337.00 318.08,339.33 316.06,341.75 C314.17,344.01 312.00,344.75 312.00,343.13 ZM 320.77 349.43 C319.78,348.45 323.13,343.00 324.72,343.00 C325.42,343.00 326.00,343.42 326.00,343.94 C326.00,345.51 321.53,350.20 320.77,349.43 Z" fill="rgb(107,191,202)"/>
<path d="M 0.04 502.75 L 0.09 493.50 L 2.16 497.50 C5.18,503.34 8.85,506.95 14.50,509.62 L 19.50 511.98 L 9.75 511.99 L 0.00 512.00 L 0.04 502.75 ZM 497.00 510.41 C501.75,508.36 507.84,502.36 510.10,497.50 L 511.96 493.50 L 511.98 502.75 L 512.00 512.00 L 502.75 511.96 C493.60,511.92 493.54,511.90 497.00,510.41 ZM 224.00 334.79 C220.98,333.13 218.33,331.62 218.13,331.43 C217.16,330.54 219.29,325.90 222.01,322.99 L 225.03 319.76 L 230.27 324.61 C233.14,327.28 235.65,329.79 235.82,330.20 C236.21,331.07 231.05,338.05 230.13,337.90 C229.78,337.85 227.02,336.44 224.00,334.79 ZM 283.10 334.44 C281.94,332.49 281.00,330.56 281.00,330.15 C281.00,328.72 289.60,321.00 291.20,321.00 C293.29,321.00 299.36,328.61 298.69,330.38 C298.17,331.72 287.82,338.00 286.11,338.00 C285.61,338.00 284.25,336.40 283.10,334.44 ZM 236.07 320.98 C233.83,317.79 232.00,314.73 232.00,314.17 C232.00,313.61 234.36,312.02 237.25,310.63 C243.44,307.65 243.95,307.99 246.73,316.80 L 248.42 322.17 L 245.96 324.03 C241.42,327.47 240.40,327.15 236.07,320.98 ZM 271.67 324.89 C269.56,323.78 268.04,322.34 268.29,321.68 C268.54,321.03 269.56,317.91 270.55,314.75 C271.75,310.94 272.89,309.01 273.93,309.02 C276.10,309.05 283.60,312.54 284.45,313.91 C284.83,314.53 283.82,316.71 282.21,318.77 C280.61,320.82 278.76,323.51 278.11,324.75 C276.69,327.45 276.53,327.46 271.67,324.89 ZM 253.62 320.46 C253.30,319.61 252.53,314.82 251.93,309.82 C250.64,299.26 250.78,299.03 258.50,299.03 C266.15,299.03 266.34,299.32 265.02,309.11 C263.40,321.01 262.87,322.00 258.13,322.00 C255.52,322.00 254.02,321.48 253.62,320.46 ZM 380.54 223.78 C378.59,221.56 377.00,219.10 377.00,218.32 C377.00,217.55 375.88,215.79 374.50,214.41 C373.13,213.04 371.37,210.70 370.60,209.21 C369.82,207.72 368.02,205.41 366.60,204.08 C364.84,202.44 364.00,200.61 364.00,198.44 C364.00,195.58 366.42,192.82 385.72,173.61 C397.67,161.73 408.20,152.00 409.12,152.00 C410.67,152.00 413.13,154.47 419.84,162.80 C421.30,164.61 423.52,167.22 424.76,168.60 C426.00,169.98 427.69,172.55 428.52,174.31 C429.99,177.44 432.41,181.13 437.46,187.91 C442.08,194.12 440.34,200.99 433.65,202.97 C431.37,203.64 428.60,204.99 427.50,205.97 C426.40,206.95 423.79,208.30 421.70,208.97 C419.61,209.64 417.14,210.96 416.20,211.91 C415.27,212.87 412.33,214.45 409.68,215.43 C407.02,216.42 404.63,217.80 404.36,218.51 C404.09,219.22 401.98,220.27 399.67,220.85 C397.36,221.43 394.53,222.79 393.37,223.87 C392.21,224.95 389.65,226.28 387.67,226.83 C384.24,227.77 383.93,227.64 380.54,223.78 ZM 130.75 226.31 C129.79,226.06 129.00,225.45 129.00,224.95 C129.00,223.74 123.58,221.00 121.17,221.00 C120.11,221.00 118.63,220.25 117.87,219.34 C117.12,218.42 114.47,216.78 112.00,215.69 C109.53,214.61 106.29,212.71 104.82,211.48 C103.35,210.25 100.54,208.95 98.57,208.58 C96.61,208.21 93.90,206.80 92.55,205.45 C91.20,204.10 89.06,202.99 87.80,202.98 C84.63,202.96 82.87,201.67 81.53,198.38 C80.12,194.94 81.92,188.82 85.46,185.00 C86.73,183.62 88.11,181.38 88.52,180.00 C88.93,178.62 90.33,176.43 91.63,175.11 C92.94,173.80 94.00,172.38 94.00,171.96 C94.00,171.32 102.75,160.31 108.47,153.75 C109.31,152.79 110.88,152.00 111.95,152.00 C113.14,152.00 121.35,159.45 133.20,171.32 C143.82,181.94 153.75,191.44 155.26,192.43 C158.88,194.81 159.08,200.00 155.66,202.70 C154.37,203.71 152.72,205.65 152.00,207.02 C151.28,208.38 149.94,210.03 149.03,210.68 C148.11,211.32 146.54,213.69 145.53,215.93 C144.52,218.17 143.37,220.00 142.96,220.00 C142.56,220.00 141.48,221.57 140.57,223.50 C139.15,226.48 138.43,226.98 135.70,226.88 C133.94,226.82 131.71,226.56 130.75,226.31 ZM 178.03 175.58 C177.52,174.25 176.47,172.79 175.69,172.33 C174.91,171.87 173.58,170.15 172.74,168.50 C171.89,166.85 170.03,164.24 168.60,162.70 C167.17,161.16 166.00,159.32 166.00,158.61 C166.00,157.91 164.65,156.13 163.00,154.66 C161.35,153.19 159.98,151.43 159.96,150.74 C159.94,150.06 158.59,147.94 156.96,146.04 C155.33,144.13 154.00,142.08 154.00,141.47 C154.00,140.87 152.65,139.08 151.00,137.50 C149.35,135.92 148.00,134.11 148.00,133.49 C148.00,132.86 146.88,131.29 145.50,130.00 C142.73,127.39 142.00,122.00 144.42,122.00 C145.21,122.00 147.19,120.87 148.83,119.49 C150.48,118.10 153.33,116.34 155.18,115.57 C157.03,114.80 159.39,113.23 160.43,112.08 C161.46,110.94 162.94,110.00 163.70,110.00 C165.44,110.00 170.95,107.20 172.74,105.40 C173.48,104.66 176.36,103.76 179.13,103.39 C182.27,102.97 185.27,101.80 187.08,100.28 C191.13,96.87 193.06,97.61 194.46,103.14 C195.10,105.69 196.35,108.49 197.22,109.37 C198.10,110.24 199.35,114.16 200.01,118.08 C200.79,122.70 201.88,125.77 203.11,126.82 C204.15,127.72 205.01,129.58 205.01,130.97 C205.03,135.00 207.72,144.04 209.48,145.98 C210.48,147.08 211.32,150.43 211.68,154.75 L 212.27 161.75 L 208.40 164.37 C206.28,165.82 203.72,167.00 202.72,167.00 C200.42,167.00 195.75,169.39 194.05,171.43 C193.34,172.30 192.09,173.00 191.27,173.00 C190.46,173.00 188.45,174.12 186.82,175.50 C182.95,178.76 179.25,178.79 178.03,175.58 ZM 334.91 176.40 C334.14,175.46 331.92,174.04 330.00,173.25 C328.08,172.46 325.60,170.99 324.50,169.99 C323.40,169.00 320.68,167.70 318.46,167.11 C316.17,166.50 312.98,164.54 311.07,162.57 C308.06,159.46 307.82,158.82 308.78,156.30 C309.36,154.76 310.10,151.63 310.41,149.35 C310.73,147.07 312.12,143.02 313.49,140.35 C314.87,137.68 316.29,133.25 316.66,130.50 C317.03,127.75 318.15,124.38 319.15,123.00 C320.16,121.62 321.44,118.03 322.00,115.00 C322.56,111.97 323.90,108.31 324.97,106.85 C326.04,105.39 327.21,102.99 327.58,101.52 C328.52,97.78 330.36,97.43 334.20,100.25 C336.02,101.59 340.05,103.23 343.16,103.89 C346.28,104.56 349.06,105.71 349.34,106.45 C349.63,107.19 352.14,108.55 354.93,109.48 C357.72,110.40 360.00,111.52 360.00,111.97 C360.00,112.41 361.69,113.57 363.75,114.54 C365.81,115.51 369.07,117.59 370.98,119.15 C372.89,120.72 375.00,122.00 375.67,122.00 C377.94,122.00 378.14,124.03 376.18,127.27 C375.11,129.05 373.92,131.53 373.54,132.78 C373.16,134.04 371.87,136.15 370.67,137.48 C366.63,141.99 363.29,146.49 361.74,149.50 C360.90,151.15 359.26,153.36 358.10,154.41 C356.95,155.45 356.00,156.85 356.00,157.51 C356.00,158.16 354.76,160.07 353.25,161.74 C349.85,165.49 345.21,171.94 343.64,175.12 C342.14,178.13 336.98,178.89 334.91,176.40 ZM 242.80 154.32 C240.13,153.62 239.36,149.76 237.98,130.05 C237.38,121.40 236.44,114.78 235.64,113.55 C233.80,110.70 233.09,105.81 232.00,88.62 C231.34,78.28 230.59,73.02 229.53,71.40 C228.69,70.12 228.00,67.52 228.00,65.63 L 228.00 62.18 L 235.03 61.00 C239.53,60.24 250.21,59.94 264.78,60.17 C291.09,60.58 292.64,60.97 291.56,66.85 C291.19,68.86 290.51,76.35 290.05,83.50 C289.58,90.65 288.51,98.53 287.66,101.00 C285.61,106.99 284.23,116.28 283.55,128.72 C283.19,135.43 282.31,140.68 281.00,144.01 C279.90,146.79 279.00,150.13 279.00,151.43 C279.00,152.73 278.29,154.06 277.42,154.39 C275.64,155.08 245.43,155.01 242.80,154.32 ZM 0.01 9.75 L 0.00 0.00 L 9.75 0.02 L 19.50 0.04 L 15.00 2.08 C8.96,4.82 5.22,8.49 2.38,14.50 L 0.02 19.50 L 0.01 9.75 ZM 510.57 15.44 C509.65,11.76 502.18,4.01 497.50,1.87 L 493.50 0.04 L 502.75 0.02 L 512.00 0.00 L 512.00 9.00 C512.00,13.95 511.82,18.00 511.61,18.00 C511.39,18.00 510.93,16.85 510.57,15.44 Z" fill="rgb(246,247,248)"/>
</g>
</svg>